<svg width="707" height="173" viewBox="0 0 707 173" fill="none" xmlns="http://www.w3.org/2000/svg">
<path d="M192.057 7.46387C192.844 6.88748 193.907 7.66495 193.596 8.58984L148.659 142.221C148.569 142.49 148.367 142.708 148.106 142.82L79.2394 172.418C78.5773 172.702 77.8409 172.214 77.8448 171.493L78.2814 91.2637C78.2831 90.9468 78.4349 90.6491 78.6905 90.4619L192.057 7.46387ZM188.824 0C189.797 0.000232254 190.197 1.24808 189.405 1.81348L74.6564 83.7773C74.425 83.9425 74.134 84.0015 73.8566 83.9395L0.782347 67.5791C0.0609042 67.4175 -0.241977 66.5559 0.219847 65.9785L52.7032 0.375C52.8929 0.137908 53.1799 0.00010732 53.4835 0H188.824Z" fill="#474747"/>
<path d="M301.882 54.3965C301.442 49.9123 299.816 46.5712 297.002 44.373C294.188 42.1749 290.012 41.0758 284.473 41.0758C279.285 41.0758 275.372 41.9551 272.735 43.7136C270.097 45.4721 268.778 48.0219 268.778 51.3631C268.778 54.1767 269.789 56.4188 271.811 58.0894C273.922 59.76 277.439 61.2108 282.362 62.4417C287.374 63.6727 292.122 64.9036 296.606 66.1346C301.178 67.2776 305.091 68.5965 308.344 70.0912C310.279 70.9705 312.081 71.9816 313.752 73.1247C315.422 74.2677 316.873 75.6745 318.104 77.3451C319.335 79.0157 320.302 80.994 321.006 83.2801C321.709 85.5661 322.061 88.2479 322.061 91.3252C322.061 96.1611 321.182 100.338 319.423 103.855C317.752 107.284 315.334 110.141 312.169 112.427C309.092 114.713 305.399 116.384 301.091 117.439C296.87 118.582 292.21 119.154 287.11 119.154C281.659 119.154 276.691 118.538 272.207 117.307C267.723 116.164 263.854 114.362 260.601 111.9C257.348 109.438 254.798 106.404 252.951 102.8C251.105 99.1066 250.138 94.7983 250.05 89.8745H267.723C267.899 94.3587 269.701 97.9197 273.13 100.557C276.647 103.107 281.351 104.382 287.242 104.382C292.694 104.382 296.87 103.327 299.772 101.217C302.761 99.0187 304.256 95.9413 304.256 91.9847C304.256 90.6658 304.036 89.4788 303.596 88.4237C303.245 87.3686 302.541 86.4014 301.486 85.5222C300.519 84.555 299.156 83.7197 297.398 83.0163C295.639 82.225 293.397 81.5216 290.671 80.9061C285.22 79.6751 280.604 78.62 276.823 77.7408C273.13 76.7736 269.745 75.5866 266.668 74.1798C261.92 72.0696 258.271 69.3439 255.721 66.0027C253.259 62.5736 252.028 58.0894 252.028 52.5501C252.028 48.5935 252.688 44.9885 254.006 41.7353C255.325 38.3941 257.304 35.5365 259.941 33.1625C262.667 30.7885 266.008 28.9421 269.965 27.6232C274.01 26.3043 278.714 25.6449 284.077 25.6449C289.616 25.6449 294.54 26.3483 298.848 27.7551C303.157 29.1619 306.762 31.1402 309.663 33.6901C312.653 36.2399 314.939 39.2734 316.521 42.7904C318.192 46.3074 319.115 50.1761 319.291 54.3965H301.882Z" fill="#474747"/>
<path d="M357.602 103.195C367.449 103.195 372.373 96.5128 372.373 83.1482C372.373 77.3451 371.01 72.6411 368.285 69.0361C365.559 65.3433 362.042 63.4968 357.733 63.4968C353.601 63.4968 350.128 65.2114 347.314 68.6405C344.589 72.0696 343.226 76.5538 343.226 82.0931C343.226 96.1611 348.018 103.195 357.602 103.195ZM327.003 146.85V51.2312H343.49L343.621 59.1445C347.578 52.726 353.601 49.5167 361.69 49.5167C365.735 49.5167 369.472 50.308 372.901 51.8907C376.418 53.4733 379.407 55.7594 381.869 58.7488C384.331 61.7383 386.265 65.3872 387.672 69.6956C389.079 74.0039 389.782 78.8838 389.782 84.3352C389.782 89.259 389.167 93.7872 387.936 97.9197C386.793 101.964 385.078 105.481 382.792 108.471C380.506 111.46 377.693 113.79 374.351 115.461C371.098 117.043 367.361 117.835 363.141 117.835C355.14 117.835 348.721 114.45 343.885 107.679V146.85H327.003Z" fill="#474747"/>
<path d="M396.039 116.12V51.2312H412.129V59.0126C413.536 56.8145 414.987 55.0999 416.481 53.869C418.064 52.638 419.647 51.7148 421.229 51.0993C422.9 50.3959 424.571 49.9563 426.241 49.7804C427.912 49.6046 429.626 49.5167 431.385 49.5167H433.627V67.0578C432.044 66.794 430.462 66.6621 428.879 66.6621C418.416 66.6621 413.184 71.8937 413.184 82.3568V116.12H396.039Z" fill="#474747"/>
<path d="M438.809 116.12V51.2312H455.954V116.12H438.809ZM438.809 43.4498V27.4913H455.954V43.4498H438.809Z" fill="#474747"/>
<path d="M505.331 116.12V76.8175C505.331 71.8058 504.496 68.4207 502.825 66.6621C501.154 64.9036 498.297 64.0244 494.252 64.0244C485.372 64.0244 480.931 68.9922 480.931 78.9277V116.12H463.786V51.2312H480.14V60.7272C482.162 57.0343 484.844 54.2646 488.185 52.4182C491.527 50.4839 495.835 49.5167 501.11 49.5167C504.188 49.5167 507.045 50.0003 509.683 50.9674C512.321 51.8467 514.563 53.2095 516.409 55.056C518.344 56.9024 519.839 59.1885 520.894 61.9142C522.037 64.5519 522.608 67.6293 522.608 71.1463V116.12H505.331Z" fill="#474747"/>
<path d="M566.913 73.3884H582.872V91.8528C582.872 95.2819 582.344 98.5791 581.289 101.744C580.322 104.822 578.739 107.591 576.541 110.053C574.431 112.427 571.705 114.318 568.364 115.725C565.111 117.131 561.198 117.835 556.626 117.835C551.878 117.835 547.834 117.131 544.492 115.725C541.151 114.318 538.382 112.427 536.183 110.053C534.073 107.679 532.534 104.91 531.567 101.744C530.6 98.5791 530.117 95.2379 530.117 91.7209V33.6901H546.998V51.2312H582.872V63.3649H546.998V90.0064C546.998 94.1389 547.746 97.3481 549.24 99.6342C550.823 101.832 553.373 102.931 556.89 102.931C560.319 102.931 562.825 101.832 564.407 99.6342C566.078 97.4361 566.913 94.3147 566.913 90.2701V73.3884Z" fill="#474747"/>
<path d="M629.313 84.3352C628.434 85.2144 627.159 85.9178 625.488 86.4454C623.818 86.9729 621.4 87.5444 618.234 88.1599C613.311 89.1271 609.925 90.3581 608.079 91.8528C606.233 93.3475 605.309 95.5017 605.309 98.3153C605.309 103.151 608.079 105.569 613.618 105.569C615.816 105.569 617.839 105.217 619.685 104.514C621.619 103.723 623.246 102.712 624.565 101.481C625.972 100.162 627.071 98.667 627.862 96.9964C628.741 95.2379 629.181 93.3915 629.181 91.4571L629.313 84.3352ZM630.5 116.12C629.972 114.45 629.621 112.515 629.445 110.317C627.423 112.603 624.741 114.45 621.4 115.856C618.058 117.175 614.19 117.835 609.794 117.835C602.32 117.835 596.824 116.208 593.307 112.955C589.878 109.614 588.164 105.305 588.164 100.03C588.164 95.3698 588.911 91.6769 590.406 88.9513C591.901 86.1376 593.967 83.9395 596.605 82.3568C599.242 80.7742 602.364 79.6312 605.969 78.9277C609.662 78.1364 613.662 77.433 617.971 76.8175C622.279 76.2021 625.18 75.4107 626.675 74.4435C628.17 73.3884 628.917 71.7179 628.917 69.4318C628.917 67.3216 627.906 65.695 625.884 64.5519C623.95 63.321 621.312 62.7055 617.971 62.7055C614.014 62.7055 611.156 63.5848 609.398 65.3433C607.727 67.1018 606.672 69.4318 606.233 72.3333H590.274C590.362 68.9922 590.89 65.9148 591.857 63.1012C592.912 60.2875 594.538 57.8696 596.737 55.8473C599.023 53.825 601.968 52.2863 605.573 51.2312C609.178 50.0882 613.574 49.5167 618.762 49.5167C623.862 49.5167 628.17 50.0882 631.687 51.2312C635.292 52.3742 638.149 54.0448 640.26 56.243C642.458 58.3532 644.04 61.0349 645.008 64.2882C645.975 67.4535 646.458 71.0584 646.458 75.103V116.12H630.5Z" fill="#474747"/>
<path d="M690.816 73.3884H706.775V91.8528C706.775 95.2819 706.247 98.5791 705.192 101.744C704.225 104.822 702.642 107.591 700.444 110.053C698.334 112.427 695.608 114.318 692.267 115.725C689.014 117.131 685.101 117.835 680.529 117.835C675.781 117.835 671.736 117.131 668.395 115.725C665.054 114.318 662.284 112.427 660.086 110.053C657.976 107.679 656.437 104.91 655.47 101.744C654.503 98.5791 654.019 95.2379 654.019 91.7209V33.6901H670.901V51.2312H706.775V63.3649H670.901V90.0064C670.901 94.1389 671.648 97.3481 673.143 99.6342C674.726 101.832 677.276 102.931 680.793 102.931C684.222 102.931 686.728 101.832 688.31 99.6342C689.981 97.4361 690.816 94.3147 690.816 90.2701V73.3884Z" fill="#474747"/>
</svg>
