<svg width="194" height="173" viewBox="0 0 194 173" fill="none" xmlns="http://www.w3.org/2000/svg">
<path d="M192.057 7.46387C192.844 6.88748 193.907 7.66495 193.596 8.58984L148.659 142.221C148.569 142.49 148.367 142.708 148.106 142.82L79.2394 172.418C78.5773 172.702 77.8409 172.214 77.8448 171.493L78.2814 91.2637C78.2831 90.9468 78.4349 90.6491 78.6905 90.4619L192.057 7.46387ZM188.824 0C189.797 0.000232254 190.197 1.24808 189.405 1.81348L74.6564 83.7773C74.425 83.9425 74.134 84.0015 73.8566 83.9395L0.782347 67.5791C0.0609042 67.4175 -0.241977 66.5559 0.219847 65.9785L52.7032 0.375C52.8929 0.137908 53.1799 0.00010732 53.4835 0H188.824Z" fill="#E0F71C"/>
</svg>
